<svg xmlns="http://www.w3.org/2000/svg" viewBox="0 0 400 400" role="img" aria-label="Термопрес"><ellipse cx="200" cy="336" rx="150" ry="12" fill="#cbd5e1" opacity=".55"/>
<rect x="70" y="280" width="260" height="48" rx="10" fill="#e2e8f0" stroke="#94a3b8" stroke-width="3" stroke-linejoin="round" stroke-linecap="round"/>
<rect x="250" y="292" width="62" height="24" rx="6" fill="#1e3a8a"/><rect x="258" y="299" width="26" height="10" rx="3" fill="#fca5a5"/><circle cx="298" cy="304" r="5" fill="#86efac"/>
<rect x="60" y="250" width="280" height="30" rx="8" fill="#f8fafc" stroke="#94a3b8" stroke-width="3" stroke-linejoin="round" stroke-linecap="round"/>
<path d="M300 250 L330 130" fill="none" stroke="#94a3b8" stroke-width="12" stroke-linecap="round"/>
<path d="M62 190 L338 130 L344 158 L68 218Z" fill="#2f6df6"/>
<path d="M70 204 L328 148" stroke="#f97316" stroke-width="6" stroke-linecap="round"/>
<path d="M180 164 L150 96 L104 96" fill="none" stroke="#94a3b8" stroke-width="10" stroke-linecap="round" stroke-linejoin="round"/>
<rect x="76" y="84" width="46" height="24" rx="12" fill="#1e3a8a"/>
<path d="M118 240 q8 -12 0 -22 M160 240 q8 -12 0 -22 M202 240 q8 -12 0 -22" fill="none" stroke="#fca5a5" stroke-width="4" stroke-linecap="round"/></svg>
