<svg xmlns="http://www.w3.org/2000/svg" viewBox="0 0 400 400" role="img" aria-label="Широкоформатний принтер"><ellipse cx="200" cy="336" rx="150" ry="12" fill="#cbd5e1" opacity=".55"/>
<path d="M92 214 L92 330 M308 214 L308 330 M72 332h44 M284 332h44 M92 292h216" fill="none" stroke="#94a3b8" stroke-width="7" stroke-linecap="round"/>
<path d="M112 300 Q200 334 288 300" fill="none" stroke="#cbd5e1" stroke-width="4" stroke-linecap="round"/>
<path d="M104 190 L104 276 Q104 284 112 284 L232 284 Q240 284 240 276 L240 190Z" fill="#ffffff" stroke="#94a3b8" stroke-width="3" stroke-linejoin="round" stroke-linecap="round"/>
<path d="M124 216 L160 236 L190 212 L220 244 M124 262h96" fill="none" stroke="#93c5fd" stroke-width="4" stroke-linecap="round" stroke-linejoin="round"/>
<rect x="56" y="126" width="288" height="92" rx="16" fill="#e2e8f0" stroke="#94a3b8" stroke-width="3" stroke-linejoin="round" stroke-linecap="round"/>
<rect x="56" y="126" width="288" height="36" rx="16" fill="#2f6df6"/><rect x="56" y="146" width="288" height="16" fill="#2f6df6"/>
<rect x="84" y="182" width="170" height="12" rx="6" fill="#1e3a8a"/>
<rect x="276" y="174" width="48" height="30" rx="6" fill="#f8fafc" stroke="#94a3b8" stroke-width="3" stroke-linejoin="round" stroke-linecap="round"/><circle cx="290" cy="189" r="4" fill="#86efac"/><rect x="300" y="185" width="16" height="8" rx="4" fill="#93c5fd"/></svg>
